<svg width="120" height="120" viewBox="0 0 120 120" fill="none" xmlns="http://www.w3.org/2000/svg">
<rect width="120" height="120" fill="#D9D9D9"/>
<path d="M19.7585 60.2727H21.5994V65.7614H21.6719L25.4432 60.2727H27.0582V69H25.2131V63.5071H25.1491L21.3565 69H19.7585V60.2727ZM28.212 67.1463H29.9719C29.9805 67.3622 30.0771 67.5327 30.2617 67.6577C30.4464 67.7827 30.685 67.8452 30.9776 67.8452C31.2731 67.8452 31.5217 67.777 31.7234 67.6406C31.9251 67.5014 32.0259 67.3026 32.0259 67.044C32.0259 66.8849 31.9862 66.7472 31.9066 66.6307C31.8271 66.5114 31.7163 66.4176 31.5742 66.3494C31.4322 66.2812 31.2674 66.2472 31.0799 66.2472H30.1381V65.0582H31.0799C31.3612 65.0582 31.5771 64.9929 31.7276 64.8622C31.881 64.7315 31.9577 64.5682 31.9577 64.3722C31.9577 64.1506 31.8782 63.973 31.7191 63.8395C31.5629 63.7031 31.3512 63.6349 31.0842 63.6349C30.8143 63.6349 30.5898 63.696 30.4109 63.8182C30.2347 63.9375 30.1438 64.0937 30.1381 64.2869H28.3867C28.3924 63.8949 28.5103 63.5554 28.7404 63.2685C28.9734 62.9815 29.2859 62.7599 29.6779 62.6037C30.0728 62.4474 30.5146 62.3693 31.0032 62.3693C31.5373 62.3693 31.9975 62.4446 32.3839 62.5952C32.7731 62.7429 33.0714 62.9545 33.2788 63.2301C33.489 63.5057 33.5941 63.8338 33.5941 64.2145C33.5941 64.5611 33.4805 64.8509 33.2532 65.0838C33.0259 65.3168 32.7077 65.483 32.2987 65.5824V65.6506C32.5685 65.6676 32.8129 65.7401 33.0316 65.8679C33.2504 65.9957 33.4251 66.1719 33.5558 66.3963C33.6864 66.6179 33.7518 66.8807 33.7518 67.1847C33.7518 67.5909 33.6325 67.9389 33.3938 68.2287C33.158 68.5185 32.8313 68.7415 32.4137 68.8977C31.9989 69.0511 31.5231 69.1278 30.9862 69.1278C30.4634 69.1278 29.9947 69.0526 29.5799 68.902C29.168 68.7486 28.8398 68.5241 28.5955 68.2287C28.354 67.9332 28.2262 67.5724 28.212 67.1463ZM37.8224 69.1278C37.1605 69.1278 36.5881 68.9872 36.1051 68.706C35.625 68.4219 35.2543 68.027 34.9929 67.5213C34.7315 67.0128 34.6009 66.4233 34.6009 65.7528C34.6009 65.0767 34.7315 64.4858 34.9929 63.9801C35.2543 63.4716 35.625 63.0767 36.1051 62.7955C36.5881 62.5114 37.1605 62.3693 37.8224 62.3693C38.4844 62.3693 39.0554 62.5114 39.5355 62.7955C40.0185 63.0767 40.3906 63.4716 40.652 63.9801C40.9134 64.4858 41.044 65.0767 41.044 65.7528C41.044 66.4233 40.9134 67.0128 40.652 67.5213C40.3906 68.027 40.0185 68.4219 39.5355 68.706C39.0554 68.9872 38.4844 69.1278 37.8224 69.1278ZM37.831 67.7216C38.1321 67.7216 38.3835 67.6364 38.5852 67.4659C38.7869 67.2926 38.9389 67.0568 39.0412 66.7585C39.1463 66.4602 39.1989 66.1207 39.1989 65.7401C39.1989 65.3594 39.1463 65.0199 39.0412 64.7216C38.9389 64.4233 38.7869 64.1875 38.5852 64.0142C38.3835 63.8409 38.1321 63.7543 37.831 63.7543C37.527 63.7543 37.2713 63.8409 37.0639 64.0142C36.8594 64.1875 36.7045 64.4233 36.5994 64.7216C36.4972 65.0199 36.446 65.3594 36.446 65.7401C36.446 66.1207 36.4972 66.4602 36.5994 66.7585C36.7045 67.0568 36.8594 67.2926 37.0639 67.4659C37.2713 67.6364 37.527 67.7216 37.831 67.7216ZM47.6662 60.0511L48.2202 61.2358C48.0355 61.3892 47.831 61.5028 47.6065 61.5767C47.3821 61.6477 47.1136 61.6946 46.8011 61.7173C46.4915 61.7401 46.1136 61.7557 45.6676 61.7642C45.1619 61.7699 44.75 61.8509 44.4318 62.0071C44.1136 62.1634 43.8722 62.4091 43.7074 62.7443C43.5426 63.0767 43.4347 63.5114 43.3835 64.0483H43.4474C43.6435 63.6477 43.919 63.3381 44.2741 63.1193C44.6321 62.9006 45.0739 62.7912 45.5994 62.7912C46.1563 62.7912 46.6435 62.9134 47.0611 63.1577C47.4815 63.402 47.8082 63.7528 48.0412 64.2102C48.2741 64.6676 48.3906 65.2159 48.3906 65.8551C48.3906 66.5199 48.2599 67.098 47.9986 67.5895C47.7401 68.0781 47.3722 68.4574 46.8949 68.7273C46.4176 68.9943 45.8494 69.1278 45.1903 69.1278C44.5284 69.1278 43.9574 68.9886 43.4773 68.7102C43 68.4318 42.6307 68.0213 42.3693 67.4787C42.1108 66.9361 41.9815 66.2685 41.9815 65.4759V64.9389C41.9815 63.3622 42.2884 62.1932 42.902 61.4318C43.5156 60.6705 44.4176 60.2841 45.608 60.2727C45.9318 60.267 46.2244 60.2656 46.4858 60.2685C46.7472 60.2713 46.9759 60.2585 47.1719 60.2301C47.3707 60.2017 47.5355 60.142 47.6662 60.0511ZM45.1989 67.7216C45.4773 67.7216 45.7159 67.6491 45.9148 67.5043C46.1165 67.3594 46.2713 67.152 46.3793 66.8821C46.4901 66.6122 46.5455 66.2898 46.5455 65.9148C46.5455 65.5426 46.4901 65.2273 46.3793 64.9688C46.2713 64.7074 46.1165 64.5085 45.9148 64.3722C45.7131 64.2358 45.4716 64.1676 45.1903 64.1676C44.9801 64.1676 44.7912 64.206 44.6236 64.2827C44.456 64.3594 44.3125 64.473 44.1932 64.6236C44.0767 64.7713 43.9858 64.9545 43.9205 65.1733C43.858 65.3892 43.8267 65.6364 43.8267 65.9148C43.8267 66.4744 43.9474 66.9162 44.1889 67.2401C44.4332 67.5611 44.7699 67.7216 45.1989 67.7216ZM49.5955 71.4545V62.4545H51.3853V63.554H51.4663C51.5458 63.3778 51.6609 63.1989 51.8114 63.017C51.9648 62.8324 52.1637 62.679 52.408 62.5568C52.6552 62.4318 52.962 62.3693 53.3285 62.3693C53.8058 62.3693 54.2461 62.4943 54.6495 62.7443C55.0529 62.9915 55.3754 63.3651 55.6168 63.8651C55.8583 64.3622 55.979 64.9858 55.979 65.7358C55.979 66.4659 55.8612 67.0824 55.6254 67.5852C55.3924 68.0852 55.0742 68.4645 54.6708 68.723C54.2702 68.9787 53.8214 69.1065 53.3242 69.1065C52.9719 69.1065 52.6722 69.0483 52.4251 68.9318C52.1808 68.8153 51.9805 68.669 51.8242 68.4929C51.668 68.3139 51.5487 68.1335 51.4663 67.9517H51.4109V71.4545H49.5955ZM51.3725 65.7273C51.3725 66.1165 51.4265 66.456 51.5344 66.7457C51.6424 67.0355 51.7987 67.2614 52.0032 67.4233C52.2077 67.5824 52.4563 67.6619 52.7489 67.6619C53.0444 67.6619 53.2944 67.581 53.4989 67.419C53.7035 67.2543 53.8583 67.027 53.9634 66.7372C54.0714 66.4446 54.1254 66.108 54.1254 65.7273C54.1254 65.3494 54.0728 65.017 53.9677 64.7301C53.8626 64.4432 53.7077 64.2187 53.5032 64.0568C53.2987 63.8949 53.0472 63.8139 52.7489 63.8139C52.4535 63.8139 52.2035 63.892 51.9989 64.0483C51.7972 64.2045 51.6424 64.4261 51.5344 64.7131C51.4265 65 51.3725 65.3381 51.3725 65.7273ZM59.0558 69.1236C58.6381 69.1236 58.266 69.0511 57.9393 68.9062C57.6126 68.7585 57.354 68.5412 57.1637 68.2543C56.9762 67.9645 56.8825 67.6037 56.8825 67.1719C56.8825 66.8082 56.9492 66.5028 57.0827 66.2557C57.2163 66.0085 57.3981 65.8097 57.6282 65.6591C57.8583 65.5085 58.1197 65.3949 58.4123 65.3182C58.7077 65.2415 59.0174 65.1875 59.3413 65.1562C59.7219 65.1165 60.0288 65.0795 60.2617 65.0455C60.4947 65.0085 60.6637 64.9545 60.7688 64.8835C60.8739 64.8125 60.9265 64.7074 60.9265 64.5682V64.5426C60.9265 64.2727 60.8413 64.0639 60.6708 63.9162C60.5032 63.7685 60.2646 63.6946 59.9549 63.6946C59.6282 63.6946 59.3683 63.767 59.1751 63.9119C58.9819 64.054 58.854 64.233 58.7915 64.4489L57.1126 64.3125C57.1978 63.9148 57.3654 63.571 57.6154 63.2812C57.8654 62.9886 58.1879 62.7642 58.5827 62.608C58.9805 62.4489 59.4407 62.3693 59.9634 62.3693C60.3271 62.3693 60.6751 62.4119 61.0075 62.4972C61.3427 62.5824 61.6396 62.7145 61.8981 62.8935C62.1594 63.0724 62.3654 63.3026 62.516 63.5838C62.6665 63.8622 62.7418 64.196 62.7418 64.5852V69H61.0202V68.0923H60.9691C60.864 68.2969 60.7234 68.4773 60.5472 68.6335C60.3711 68.7869 60.1594 68.9077 59.9123 68.9957C59.6651 69.081 59.3796 69.1236 59.0558 69.1236ZM59.5756 67.8707C59.8427 67.8707 60.0785 67.8182 60.283 67.7131C60.4876 67.6051 60.6481 67.4602 60.7646 67.2784C60.881 67.0966 60.9393 66.8906 60.9393 66.6605V65.9659C60.8825 66.0028 60.8043 66.0369 60.7049 66.0682C60.6083 66.0966 60.4989 66.1236 60.3768 66.1491C60.2546 66.1719 60.1325 66.1932 60.0103 66.2131C59.8881 66.2301 59.7773 66.2457 59.6779 66.2599C59.4648 66.2912 59.2788 66.3409 59.1197 66.4091C58.9606 66.4773 58.837 66.5696 58.7489 66.6861C58.6609 66.7997 58.6168 66.9418 58.6168 67.1122C58.6168 67.3594 58.7063 67.5483 58.8853 67.679C59.0671 67.8068 59.2972 67.8707 59.5756 67.8707ZM63.7241 69L66.0124 65.5952L63.7369 62.4545H65.8079L67.5082 65.0156H67.7894V62.4545H69.6048V65.0156H69.8775L71.5778 62.4545H73.6488L71.3775 65.5952L73.6616 69H71.5437L69.8604 66.4432H69.6048V69H67.7894V66.4432H67.5337L65.842 69H63.7241ZM77.4339 69.1278C76.7607 69.1278 76.1811 68.9915 75.6953 68.7188C75.2124 68.4432 74.8402 68.054 74.5788 67.5511C74.3175 67.0455 74.1868 66.4474 74.1868 65.7571C74.1868 65.0838 74.3175 64.4929 74.5788 63.9844C74.8402 63.4759 75.2081 63.0795 75.6825 62.7955C76.1598 62.5114 76.7195 62.3693 77.3615 62.3693C77.7933 62.3693 78.1953 62.4389 78.5675 62.5781C78.9425 62.7145 79.2692 62.9205 79.5476 63.196C79.8288 63.4716 80.0476 63.8182 80.2038 64.2358C80.3601 64.6506 80.4382 65.1364 80.4382 65.6932V66.1918H74.9112V65.0668H78.7294C78.7294 64.8054 78.6726 64.5739 78.5589 64.3722C78.4453 64.1705 78.2876 64.0128 78.0859 63.8991C77.8871 63.7827 77.6555 63.7244 77.3913 63.7244C77.1158 63.7244 76.8714 63.7884 76.6584 63.9162C76.4482 64.0412 76.2834 64.2102 76.1641 64.4233C76.0447 64.6335 75.9837 64.8679 75.9808 65.1264V66.196C75.9808 66.5199 76.0405 66.7997 76.1598 67.0355C76.282 67.2713 76.4538 67.4531 76.6754 67.581C76.897 67.7088 77.1598 67.7727 77.4638 67.7727C77.6655 67.7727 77.8501 67.7443 78.0178 67.6875C78.1854 67.6307 78.3288 67.5455 78.4482 67.4318C78.5675 67.3182 78.6584 67.179 78.7209 67.0142L80.3999 67.125C80.3146 67.5284 80.1399 67.8807 79.8757 68.1818C79.6143 68.4801 79.2763 68.7131 78.8615 68.8807C78.4496 69.0455 77.9737 69.1278 77.4339 69.1278ZM86.1783 65.0028V66.4304H82.7607V65.0028H86.1783ZM83.3572 62.4545V69H81.6229V62.4545H83.3572ZM87.3161 62.4545V69H85.5945V62.4545H87.3161ZM90.4588 66.6051L92.8153 62.4545H94.6051V69H92.875V64.8366L90.527 69H88.7244V62.4545H90.4588V66.6051ZM99.8956 69V63.8778H98.6683C98.3359 63.8778 98.0831 63.9545 97.9098 64.108C97.7365 64.2614 97.6513 64.4432 97.6541 64.6534C97.6513 64.8665 97.7337 65.0469 97.9013 65.1946C98.0717 65.3395 98.3217 65.4119 98.6513 65.4119H100.501V66.6392H98.6513C98.0916 66.6392 97.6072 66.554 97.1982 66.3835C96.7891 66.2131 96.4737 65.9759 96.2521 65.6719C96.0305 65.3651 95.9212 65.0085 95.924 64.6023C95.9212 64.1761 96.0305 63.8026 96.2521 63.4815C96.4737 63.1577 96.7905 62.9062 97.2024 62.7273C97.6172 62.5455 98.1058 62.4545 98.6683 62.4545H101.587V69H99.8956ZM95.7365 69L97.5561 65.5909H99.2905L97.4751 69H95.7365Z" fill="black"/>
<path d="M48.7585 51V42.2727H50.6037V45.8736H54.3494V42.2727H56.1903V51H54.3494V47.3949H50.6037V51H48.7585ZM60.6605 51.1278C59.9872 51.1278 59.4077 50.9915 58.9219 50.7188C58.4389 50.4432 58.0668 50.054 57.8054 49.5511C57.544 49.0455 57.4134 48.4474 57.4134 47.7571C57.4134 47.0838 57.544 46.4929 57.8054 45.9844C58.0668 45.4759 58.4347 45.0795 58.9091 44.7955C59.3864 44.5114 59.946 44.3693 60.5881 44.3693C61.0199 44.3693 61.4219 44.4389 61.794 44.5781C62.169 44.7145 62.4957 44.9205 62.7741 45.196C63.0554 45.4716 63.2741 45.8182 63.4304 46.2358C63.5866 46.6506 63.6648 47.1364 63.6648 47.6932V48.1918H58.1378V47.0668H61.956C61.956 46.8054 61.8991 46.5739 61.7855 46.3722C61.6719 46.1705 61.5142 46.0128 61.3125 45.8991C61.1136 45.7827 60.8821 45.7244 60.6179 45.7244C60.3423 45.7244 60.098 45.7884 59.8849 45.9162C59.6747 46.0412 59.5099 46.2102 59.3906 46.4233C59.2713 46.6335 59.2102 46.8679 59.2074 47.1264V48.196C59.2074 48.5199 59.267 48.7997 59.3864 49.0355C59.5085 49.2713 59.6804 49.4531 59.902 49.581C60.1236 49.7088 60.3864 49.7727 60.6903 49.7727C60.892 49.7727 61.0767 49.7443 61.2443 49.6875C61.4119 49.6307 61.5554 49.5455 61.6747 49.4318C61.794 49.3182 61.8849 49.179 61.9474 49.0142L63.6264 49.125C63.5412 49.5284 63.3665 49.8807 63.1023 50.1818C62.8409 50.4801 62.5028 50.7131 62.0881 50.8807C61.6761 51.0455 61.2003 51.1278 60.6605 51.1278ZM64.3445 45.8821V44.4545H70.2763V45.8821H68.1669V51H66.4368V45.8821H64.3445Z" fill="black"/>
</svg>
